<svg xmlns="http://www.w3.org/2000/svg" viewBox="0 0 72.25 86.31"><defs><style>.cls-1{isolation:isolate;}.cls-2{fill:#23232b;}</style></defs><g id="Capa_2" data-name="Capa 2"><g id="Capa_1-2" data-name="Capa 1"><g id="_" data-name=" "><g id="_2" data-name=" 2" class="cls-1"><g class="cls-1"><path class="cls-2" d="M36.91,23.06a26.58,26.58,0,0,0,7.43-1.77,28.23,28.23,0,0,1,8.95-1.77,19.07,19.07,0,0,1,11.07,3.33,27.55,27.55,0,0,1,5.41,5.21,34.31,34.31,0,0,0-5.91,6.12A18.32,18.32,0,0,0,60.47,44.9a19.83,19.83,0,0,0,3.59,11.58q3.59,5.15,8.19,6.52a51.61,51.61,0,0,1-6.37,13Q59.16,86.16,52.53,86.16a23.14,23.14,0,0,1-7.25-1.67,23.7,23.7,0,0,0-7.81-1.67,19.85,19.85,0,0,0-7.41,1.74,19,19,0,0,1-6.85,1.75q-7.93,0-15.58-13.45T0,46.77Q0,34.89,5.84,27.4t14.74-7.48a33.48,33.48,0,0,1,9.17,1.57A33.46,33.46,0,0,0,36.91,23.06ZM52.74,2.17a19.44,19.44,0,0,1-1.52,7.08,21,21,0,0,1-4.8,7.13,15.3,15.3,0,0,1-5.62,3.74,26.55,26.55,0,0,1-5.36.86,23.21,23.21,0,0,1,4-13.29q3.91-5.63,13-7.69a5.54,5.54,0,0,1,.25,1.16A8.68,8.68,0,0,1,52.74,2.17Z"/></g></g></g></g></g></svg>