<svg xmlns="http://www.w3.org/2000/svg" viewBox="0 0 18 18"><defs><style>.cls-1{fill:none;}.cls-2{fill:#23232a;}</style></defs><g id="Capa_2" data-name="Capa 2"><g id="Capa_1-2" data-name="Capa 1"><g id="Grupo_15" data-name="Grupo 15"><g id="Elipse_2" data-name="Elipse 2"><circle class="cls-1" cx="9" cy="9" r="9"/><path class="cls-2" d="M9,18a9,9,0,1,1,9-9A9,9,0,0,1,9,18ZM9,1a8,8,0,1,0,8,8A8,8,0,0,0,9,1Z"/></g><path class="cls-2" d="M13.4,8.36h-4v-4a.5.5,0,0,0-.5-.5.5.5,0,0,0-.5.5v4h-4a.5.5,0,0,0-.5.5.5.5,0,0,0,.5.5h4v4a.5.5,0,0,0,.5.5.5.5,0,0,0,.5-.5v-4h4a.5.5,0,0,0,.5-.5A.5.5,0,0,0,13.4,8.36Z"/></g></g></g></svg>