<svg xmlns="http://www.w3.org/2000/svg" xmlns:xlink="http://www.w3.org/1999/xlink" width="20.43" height="24.404" viewBox="0 0 20.43 24.404">
  <defs>
    <clipPath id="clip-path">
      <rect id="Rectangle_80" data-name="Rectangle 80" width="20.43" height="24.404" fill="#23232b"/>
    </clipPath>
  </defs>
  <g id="Group_101" data-name="Group 101" transform="translate(0 0)">
    <g id="Group_100" data-name="Group 100" transform="translate(0 0)" clip-path="url(#clip-path)">
      <path id="Path_46" data-name="Path 46" d="M10.436,6.519a7.509,7.509,0,0,0,2.1-.5,7.988,7.988,0,0,1,2.531-.5,5.394,5.394,0,0,1,3.131.944,7.824,7.824,0,0,1,1.529,1.473,9.775,9.775,0,0,0-1.673,1.73A5.178,5.178,0,0,0,17.1,12.7a5.6,5.6,0,0,0,1.015,3.274,4.414,4.414,0,0,0,2.316,1.844,14.66,14.66,0,0,1-1.8,3.674q-1.9,2.874-3.774,2.874a6.524,6.524,0,0,1-2.052-.472,6.739,6.739,0,0,0-2.209-.472,5.61,5.61,0,0,0-2.094.493,5.386,5.386,0,0,1-1.937.493q-2.245,0-4.4-3.8A14.762,14.762,0,0,1,0,13.224,8.644,8.644,0,0,1,1.651,7.749,5.078,5.078,0,0,1,5.819,5.633a9.571,9.571,0,0,1,2.595.443,9.344,9.344,0,0,0,2.023.443m4.475-5.9a5.486,5.486,0,0,1-.429,2,5.927,5.927,0,0,1-1.358,2.016A4.352,4.352,0,0,1,11.537,5.69a7.571,7.571,0,0,1-1.515.243,6.555,6.555,0,0,1,1.137-3.76A5.835,5.835,0,0,1,14.825,0,1.728,1.728,0,0,1,14.9.329c.009.1.014.191.014.286" transform="translate(0 0)" fill="#23232b"/>
    </g>
  </g>
</svg>
