<svg xmlns="http://www.w3.org/2000/svg" width="16.766" height="18.427" viewBox="0 0 16.766 18.427">
  <g id="Group_28" data-name="Group 28" transform="translate(-182.693 -661.978)">
    <path id="Path_13" data-name="Path 13" d="M39.911,9.56c-.193-.923-.414-1.97-.534-3.006a6.349,6.349,0,0,0-12.6,0c-.118,1.021-.33,2.031-.531,2.994l-1.55,6.776H41.459ZM26.459,14.915l1.159-5.066c.2-.961.429-2.049.554-3.133a4.942,4.942,0,0,1,9.807,0c.126,1.1.353,2.18.557,3.145l1.155,5.054Z" transform="translate(158 661)" />
    <path id="Path_14" data-name="Path 14" d="M35.92,16.724H29.557a.7.7,0,0,0,0,1.408H35.92a.7.7,0,0,0,0-1.408" transform="translate(158.336 662.273)" />
  </g>
</svg>
