<svg xmlns="http://www.w3.org/2000/svg" width="11.62" height="12.695" viewBox="0 0 11.62 12.695">
  <g id="Group_763" data-name="Group 763" transform="translate(-182.568 -661.878)">
    <path id="Path_13" data-name="Path 13" d="M35.012,6.8c-.131-.626-.281-1.336-.362-2.038a4.305,4.305,0,0,0-8.546,0c-.08.693-.224,1.377-.36,2.03l-1.051,4.595H36.062Zm-9.122,3.632.786-3.435c.136-.652.291-1.39.376-2.125a3.351,3.351,0,0,1,6.65,0c.086.745.24,1.478.377,2.133l.783,3.427Z" transform="translate(158 661)" stroke="#fb6527" stroke-width="0.2"/>
    <path id="Path_14" data-name="Path 14" d="M33.646,16.724H29.33a.477.477,0,0,0,0,.955h4.315a.477.477,0,0,0,0-.955" transform="translate(156.889 656.795)" stroke="#fb6527" stroke-width="0.2"/>
  </g>
</svg>
