<svg xmlns="http://www.w3.org/2000/svg" viewBox="0 0 17.05 17.05"><defs><style>.cls-1{fill:#e5e1f6;}</style></defs><g id="Capa_2" data-name="Capa 2"><g id="Capa_1-2" data-name="Capa 1"><path class="cls-1" d="M13.67,1.6V.65a.65.65,0,1,0-1.3,0v1H4.68V.65a.65.65,0,0,0-1.3,0v1H0v13a2.5,2.5,0,0,0,2.5,2.5H14.55a2.5,2.5,0,0,0,2.5-2.5V1.6ZM3.38,2.9v.29a.65.65,0,0,0,1.3,0V2.9h7.69v.29a.65.65,0,0,0,1.3,0V2.9h2.08V6H1.3V2.9ZM14.55,15.75H2.5a1.2,1.2,0,0,1-1.2-1.2V7.27H15.75v7.28A1.2,1.2,0,0,1,14.55,15.75Z"/></g></g></svg>