<svg xmlns="http://www.w3.org/2000/svg" xmlns:xlink="http://www.w3.org/1999/xlink" width="24.775" height="20.013" viewBox="0 0 24.775 20.013">
  <defs>
    <clipPath id="clip-path">
      <rect id="Rectangle_312" data-name="Rectangle 312" width="24.775" height="20.013" />
    </clipPath>
  </defs>
  <g id="Group_859" data-name="Group 859" transform="translate(0 0)">
    <g id="Group_858" data-name="Group 858" transform="translate(0 0)" clip-path="url(#clip-path)">
      <path id="Path_556" data-name="Path 556" d="M24,0H22.074a2.006,2.006,0,0,0-1.981,1.73L4.475,5.934a.767.767,0,0,0-.732-.553H1.875A1.877,1.877,0,0,0,0,7.255V12.19a1.877,1.877,0,0,0,1.875,1.875H3.743a.767.767,0,0,0,.732-.553l1.5.4v2.658a2.355,2.355,0,0,0,1.835,2.306l4.647,1.073a2.377,2.377,0,0,0,.536.061,2.369,2.369,0,0,0,2.363-2.367V16.439l4.741,1.275a2.006,2.006,0,0,0,1.981,1.731H24a.777.777,0,0,0,.778-.778V.778A.777.777,0,0,0,24,0M1.875,12.509a.319.319,0,0,1-.318-.319V7.255a.319.319,0,0,1,.318-.318h1.09v5.572ZM4.521,7.533,20.065,3.349V16.1L7.11,12.609a.758.758,0,0,0-.361-.1l-.007,0-2.221-.6ZM13.8,17.646a.809.809,0,0,1-.306.634.8.8,0,0,1-.687.155L8.156,17.362a.806.806,0,0,1-.628-.789V14.334L13.8,16.02Zm9.422.244H22.074a.453.453,0,0,1-.453-.453V2.009a.453.453,0,0,1,.453-.453h1.144Z" transform="translate(0 0)" />
    </g>
  </g>
</svg>
