<svg xmlns="http://www.w3.org/2000/svg" xmlns:xlink="http://www.w3.org/1999/xlink" width="23.259" height="17.501" viewBox="0 0 23.259 17.501">
  <defs>
    <clipPath id="clip-path">
      <rect id="Rectangle_168" data-name="Rectangle 168" width="23.259" height="17.501" transform="translate(0 0)" fill="none"/>
    </clipPath>
  </defs>
  <g id="Group_714" data-name="Group 714" transform="translate(0 0)" clip-path="url(#clip-path)">
    <path id="Path_447" data-name="Path 447" d="M1,4.98h.385a3.961,3.961,0,0,0,7.675,0h13.2a1,1,0,0,0,0-2H9.06a3.961,3.961,0,0,0-7.675,0H1a1,1,0,0,0,0,2M5.223,2a1.981,1.981,0,1,1-1.98,1.98A1.982,1.982,0,0,1,5.223,2" />
    <path id="Path_448" data-name="Path 448" d="M22.259,12.521h-.384a3.962,3.962,0,0,0-7.676,0H1a1,1,0,0,0,0,2H14.2a3.962,3.962,0,0,0,7.676,0h.384a1,1,0,0,0,0-2M18.037,15.5a1.98,1.98,0,1,1,1.98-1.98,1.983,1.983,0,0,1-1.98,1.98" />
  </g>
</svg>
