<svg xmlns="http://www.w3.org/2000/svg" viewBox="0 0 91.42 93.24"><defs><style>.cls-1{fill:#f1bf42;}.cls-2{fill:#d85140;}.cls-3{fill:#5383ec;}.cls-4{fill:#58a65c;}</style></defs><g id="Capa_2" data-name="Capa 2"><g id="Capa_1-2" data-name="Capa 1"><path class="cls-1" d="M19.06,46.62a27.49,27.49,0,0,0,1.45,8.84h0L4.83,67.3a46.69,46.69,0,0,1,0-41.36L20.55,37.67A27.64,27.64,0,0,0,19.06,46.62Z"/><path class="cls-2" d="M77.38,11.59l-1.63,1.65-11.81,12A27.56,27.56,0,0,0,20.55,37.67L4.83,25.94A46.63,46.63,0,0,1,77.38,11.59Z"/><path class="cls-3" d="M91.42,48.13a51.5,51.5,0,0,1-.63,8,43.67,43.67,0,0,1-11,23.24c-.9.91-1.83,1.78-2.8,2.61L61.76,70.28A20.77,20.77,0,0,0,70.69,60a16.61,16.61,0,0,0,1-3.88H46.62V38.1H90.43A50.55,50.55,0,0,1,91.42,48.13Z"/><path class="cls-4" d="M77,82c-.33.28-.67.57-1,.84A46.63,46.63,0,0,1,4.83,67.3L20.51,55.46A27.58,27.58,0,0,0,46.62,74.18h.66a28,28,0,0,0,14.48-3.9Z"/></g></g></svg>