<svg xmlns="http://www.w3.org/2000/svg" xmlns:xlink="http://www.w3.org/1999/xlink" width="17.148" height="16.03" viewBox="0 0 17.148 16.03">
  <defs>
    <clipPath id="clip-path">
      <rect id="Rectangle_145" data-name="Rectangle 145" width="17.148" height="16.03" />
    </clipPath>
  </defs>
  <g id="Group_718" data-name="Group 718" transform="translate(0 0)">
    <g id="Group_135" data-name="Group 135" transform="translate(0 0)" clip-path="url(#clip-path)">
      <path id="Path_64" data-name="Path 64" d="M8.574,16.03,1.544,9A5.272,5.272,0,0,1,5.272,0a5.231,5.231,0,0,1,3.3,1.161A5.273,5.273,0,0,1,15.6,9ZM5.272,1.205A4.067,4.067,0,0,0,2.4,8.148l6.177,6.177,6.178-6.177A4.067,4.067,0,1,0,9,2.4l-.427.426L8.148,2.4A4.04,4.04,0,0,0,5.272,1.205" transform="translate(0 0)" fill="#e5e1f6"/>
    </g>
  </g>
</svg>
