<svg xmlns="http://www.w3.org/2000/svg" viewBox="0 0 15.51 17.05"><defs><style>.cls-1{fill:#e5e1f6;}</style></defs><g id="Capa_2" data-name="Capa 2"><g id="Capa_1-2" data-name="Capa 1"><path class="cls-1" d="M14.08,7.94c-.18-.85-.38-1.82-.49-2.78a5.87,5.87,0,0,0-11.66,0c-.11.94-.31,1.88-.5,2.77L0,14.2H15.51Zm-12.45,5L2.71,8.21c.18-.89.39-1.9.51-2.9a4.57,4.57,0,0,1,9.07,0c.12,1,.33,2,.52,2.91l1.07,4.68Z"/><path class="cls-1" d="M10.7,15.75H4.81a.65.65,0,0,0,0,1.3H10.7a.65.65,0,0,0,0-1.3Z"/></g></g></svg>