<svg xmlns="http://www.w3.org/2000/svg" viewBox="0 0 16.89 16.89"><defs><style>.cls-1{fill:#e5e1f6;}</style></defs><g id="Capa_2" data-name="Capa 2"><g id="Capa_1-2" data-name="Capa 1"><path class="cls-1" d="M16.89,8.44A8.45,8.45,0,0,0,0,8.44,8.35,8.35,0,0,0,2.12,14h0l.35.36a8.45,8.45,0,0,0,12,0l.35-.36v0A8.38,8.38,0,0,0,16.89,8.44ZM8.45,1.19a7.26,7.26,0,0,1,7.26,7.25A7.17,7.17,0,0,1,14,13.08a7.56,7.56,0,0,0-3.31-2.15,3.56,3.56,0,1,0-4.54,0,7.53,7.53,0,0,0-3.32,2.15A7.26,7.26,0,0,1,8.45,1.19Zm-2.37,7a2.37,2.37,0,1,1,2.37,2.37A2.37,2.37,0,0,1,6.08,8.2Zm1.68,7.47-.23,0-.45-.07-.26-.05-.4-.11-.27-.08-.38-.14-.26-.11-.36-.17-.25-.13-.34-.21-.24-.16L4,14.17,3.77,14l-.08-.07a6.35,6.35,0,0,1,4.76-2.17,6.27,6.27,0,0,1,4.76,2.17l-.08.07-.22.18-.33.24-.24.16-.34.21-.25.13-.36.17-.26.11-.38.14-.27.08-.4.11-.26.05-.46.07-.22,0c-.23,0-.46,0-.69,0S8,15.69,7.76,15.67Z"/></g></g></svg>