<svg xmlns="http://www.w3.org/2000/svg" xmlns:xlink="http://www.w3.org/1999/xlink" width="21.292" height="21.292" viewBox="0 0 21.292 21.292">
  <defs>
    <clipPath id="clip-path">
      <rect id="Rectangle_77" data-name="Rectangle 77" width="21.292" height="21.292" fill="none"/>
    </clipPath>
  </defs>
  <g id="Group_56" data-name="Group 56" transform="translate(0 0)">
    <g id="Group_55" data-name="Group 55" transform="translate(0 0)" clip-path="url(#clip-path)">
      <path id="Path_43" data-name="Path 43" d="M21.292,10.643A10.646,10.646,0,0,0,0,10.643a10.542,10.542,0,0,0,2.672,7.034l-.018.025.45.452a10.643,10.643,0,0,0,15.091,0l.451-.454-.019-.025a10.565,10.565,0,0,0,2.665-7.033M10.649,1.5a9.149,9.149,0,0,1,7.039,14.99,9.493,9.493,0,0,0-4.182-2.7,4.481,4.481,0,1,0-5.716,0,9.458,9.458,0,0,0-4.182,2.7A9.059,9.059,0,0,1,1.5,10.643,9.16,9.16,0,0,1,10.649,1.5M7.663,10.334a2.985,2.985,0,1,1,2.985,2.985,2.989,2.989,0,0,1-2.985-2.985m2.114,9.419c-.095-.009-.187-.026-.281-.038-.193-.024-.384-.049-.575-.086-.11-.02-.217-.049-.326-.073-.17-.039-.342-.079-.509-.129-.112-.033-.223-.071-.334-.108-.16-.053-.32-.108-.476-.17-.111-.044-.221-.092-.33-.141-.153-.067-.3-.139-.451-.214q-.161-.083-.318-.17-.219-.125-.431-.261c-.1-.064-.2-.129-.3-.2-.14-.1-.277-.2-.412-.306-.093-.073-.187-.145-.277-.222-.034-.029-.067-.061-.1-.091a7.968,7.968,0,0,1,5.993-2.731,7.866,7.866,0,0,1,5.995,2.731c-.034.03-.066.063-.1.092-.089.077-.184.147-.276.221-.136.106-.272.209-.412.306-.1.069-.2.135-.3.2-.141.091-.284.176-.43.258-.1.059-.212.117-.319.171-.149.076-.3.146-.45.214-.11.048-.219.1-.331.141-.156.062-.315.117-.474.17-.112.038-.223.076-.337.108-.168.049-.338.089-.508.129-.108.024-.217.053-.326.073-.19.037-.382.062-.575.086-.095.011-.187.029-.281.038-.289.026-.58.043-.873.043s-.584-.015-.872-.043" transform="translate(0 0.001)" />
    </g>
  </g>
</svg>
