<svg xmlns="http://www.w3.org/2000/svg" viewBox="0 0 17.47 16.62"><defs><style>.cls-1{fill:#23232b;}</style></defs><g id="Capa_2" data-name="Capa 2"><g id="Capa_1-2" data-name="Capa 1"><path class="cls-1" d="M17.47,8.31,15.38,6.15l.42-3-3-.51L11.43,0,8.73,1.32,6,0,4.63,2.66l-3,.51.42,3L0,8.31l2.09,2.16-.42,3,3,.52L6,16.62l2.7-1.32,2.7,1.32L12.84,14l3-.52-.42-3ZM12.11,13,11,15.13,8.73,14.05,6.52,15.13,5.36,13l-2.43-.42.34-2.45L1.56,8.31,3.27,6.54,2.93,4.09l2.43-.42L6.52,1.49,8.73,2.57,11,1.49l1.16,2.18,2.43.42-.35,2.45,1.72,1.77-1.72,1.77.35,2.45Z"/><path class="cls-1" d="M12.19,4.83a.56.56,0,0,0-.78.16L7.86,10.4,6,8.33a.56.56,0,0,0-.79-.05.57.57,0,0,0,0,.79l2.34,2.62a.57.57,0,0,0,.42.19H8a.59.59,0,0,0,.43-.25l3.95-6A.56.56,0,0,0,12.19,4.83Z"/></g></g></svg>