<?xml version="1.0" standalone="no"?>
<!DOCTYPE svg PUBLIC "-//W3C//DTD SVG 20010904//EN"
 "http://www.w3.org/TR/2001/REC-SVG-20010904/DTD/svg10.dtd">
<svg version="1.0" xmlns="http://www.w3.org/2000/svg"
 width="366.000000pt" height="374.000000pt" viewBox="0 0 366.000000 374.000000"
 preserveAspectRatio="xMidYMid meet">

<g transform="translate(0.000000,374.000000) scale(0.100000,-0.100000)"
fill="#000000" stroke="none">
<path d="M1614 3714 c-503 -68 -963 -346 -1259 -759 -70 -98 -146 -226 -149
-249 0 -9 132 -114 308 -245 l310 -231 21 53 c134 326 410 567 755 657 107 28
313 38 432 21 153 -22 333 -95 467 -188 l64 -44 261 267 c143 147 262 270 264
274 3 9 -132 114 -223 172 -355 229 -822 331 -1251 272z"/>
</g>
</svg>
